<svg xmlns="http://www.w3.org/2000/svg" xmlns:xlink="http://www.w3.org/1999/xlink" viewBox="0 0 101 101" xmlns:v="https://vecta.io/nano"><style><![CDATA[.J{stroke:#444}.K{stroke-width:.7}.L{stroke-linecap:round}.M{stroke-linejoin:round}.N{stroke-miterlimit:10}]]></style><defs><clipPath id="A"><path d="M96.012 39.804c0 25.135-20.376 45.512-45.512 45.512S4.988 64.939 4.988 39.804 39.739 6.065 50.5 6.065s45.512 8.603 45.512 33.739z" fill="none"/></clipPath><path id="B" d="M72.796 86.726l.003-19.959c.005-8.358-6.244-15.326-14.301-16.466.05.383.085.771.085 1.168-.003 4.91-3.985 8.888-8.895 8.885s-8.888-3.985-8.885-8.895c0-.397.035-.785.086-1.168-8.058 1.131-14.314 8.092-14.319 16.45L26.566 86.7"/><path id="C" d="M44.148 15.634c-.709 1.435-1.102 2.846-1.103 4.503-.004 6.628 6.262 12.005 13.995 12.01 4.366.002 8.265-1.709 10.834-4.391-3.497-.494-5.044-4.821-5.044-4.821-2.13-5.022-7.117-8.569-12.892-8.573h0c-7.701-.004-14.006 6.293-14.01 13.994l-.006 11.113c-.004 7.701 6.293 14.006 13.994 14.01h0c7.701.004 14.006-6.293 14.01-13.994l.005-8.79"/></defs><g clip-path="url(#A)"><use xlink:href="#B" fill="#ffa400" class="J K N"/><path d="M36.792 68.08c.003-4.754 2.03-9.055 5.259-12.089-.789-1.329-1.25-2.875-1.249-4.532 0-.397.035-.785.086-1.168-8.058 1.131-14.314 8.092-14.319 16.45L26.566 86.7l10.224.006.002-18.626z" fill="#d68a00"/><g class="J K"><use xlink:href="#B" fill="none" class="N"/><g fill="#fff" class="L M"><use xlink:href="#C"/><path d="M64.101 34.853a2.43 2.43 0 0 1 2.426 2.429 2.43 2.43 0 0 1-2.429 2.426m-28.24-4.871a2.43 2.43 0 0 0-2.429 2.426 2.43 2.43 0 0 0 2.426 2.429"/></g></g><path d="M43.965 15.762c-4.736 2.203-8.034 7.204-8.038 14.595l4.324-2.062c-.744-5.813.795-9.512 3.714-12.533z" fill="#f3f5f9"/><g class="J"><g fill="none" class="K"><path d="M43.745 23.87c-1.459 2.991-4.29 5.367-7.819 6.552" class="N"/><g class="L M"><use xlink:href="#C"/></g></g><g stroke-width="1.369" class="L M"><path d="M28.844 20.43v-6.895h6.895m.978 39.933h-7.873v-7.873M64.4 13.535h6.895v6.895m0 25.164v7.873h-7.873" fill="none"/></g></g></g><path d="M100.499 50.5c0 27.614-22.385 49.999-49.999 49.999-15.62 0-29.566-7.162-38.735-18.382m87.739-41.593l.736 4.85M2.824 65.61A49.99 49.99 0 0 1 .501 50.5C.501 22.886 22.886.501 50.5.501c20.936 0 38.867 12.868 46.315 31.126M8.053 76.937l-1.876-3.275" fill="none" class="J K L M"/></svg>