<svg xmlns="http://www.w3.org/2000/svg" xmlns:xlink="http://www.w3.org/1999/xlink" viewBox="0 0 101 101" xmlns:v="https://vecta.io/nano"><style><![CDATA[.K{stroke:#444}.L{stroke-width:.7}.M{stroke-linecap:round}.N{stroke-linejoin:round}]]></style><defs><clipPath id="A"><circle cx="50.5" cy="50.5" r="50" fill="none"/></clipPath><path id="B" d="M16.166 101l.18-76.589a6.14 6.14 0 0 1 6.149-6.129l55.856.095a6.14 6.14 0 0 1 6.129 6.147h0L84.302 101H16.166zm51.495-78.157v1.299c-.005 1.536-1.249 2.78-2.785 2.784H36.275c-1.536-.004-2.78-1.248-2.785-2.784v-1.42l-9.29-.015c-1.953-.003-3.539 1.577-3.542 3.53h0L20.506 101H79.98l.151-74.664c.003-1.953-1.577-3.539-3.53-3.542h0l-8.931-.015-.009.064z"/></defs><g clip-path="url(#A)"><use xlink:href="#B" fill="#00a3e0"/><path d="M32.378 100.519l.177-76.075a6.14 6.14 0 0 1 6.149-6.128h0l-16.079-.036a6.14 6.14 0 0 0-6.147 6.129h0l-.179 76.072 16.079.038z" fill="#0082b3"/><path d="M67.669 22.779l8.931.015c1.953.003 3.533 1.589 3.53 3.542h0l-.151 74.214-59.474-.1.151-74.214c.003-1.953 1.589-3.533 3.542-3.53h0l9.29.015v1.35c0 1.576 1.277 2.853 2.853 2.853H64.71c1.576.001 2.854-1.276 2.855-2.852v-1.294" fill="#fff"/><path d="M32.486 22.555l-8.286-.012c-1.953-.003-3.539 1.577-3.542 3.53h0l-.151 74.521h11.977l.003-78.039z" fill="#f3f5f9"/><use xlink:href="#B" fill="none" stroke-miterlimit="10" class="K L"/></g><path d="M27.208 81.846l7.075-15.201 11.148 7.094 5.067-4.054 9.121 10.134 14.188-21.282v29.244l-46.617.145.018-6.08z" fill="#f3f5f9"/><g fill="none" class="K L M N"><path d="M27.208 51.444v36.338H73.81"/><path d="M27.513 87.532l8.798-10.753 12.161 3.04 9.121-10.134 10.134-5.067"/></g><g fill="#00a3e0" class="K L"><circle cx="36.311" cy="76.779" r="2.027"/><circle cx="48.472" cy="79.819" r="2.027"/><circle cx="57.592" cy="69.685" r="2.027"/><circle cx="67.726" cy="64.618" r="2.027"/></g><g fill="none" class="M N K"><path d="M27.513 39.179H65m-37.487 5.57h22.811" stroke-width="2.045"/><path d="M97.612 33.713c1.87 5.247 2.888 10.898 2.888 16.787 0 27.614-22.386 50-50 50-18.268 0-34.248-9.797-42.972-24.424m87.735-47.878l.811 1.705M2.295 63.823A50.05 50.05 0 0 1 .5 50.5c0-27.614 22.386-50 50-50 18.157 0 34.053 9.678 42.812 24.156M5.21 71.714l-1.2-2.773" class="L"/></g></svg>