<svg xmlns="http://www.w3.org/2000/svg" xmlns:xlink="http://www.w3.org/1999/xlink" viewBox="0 0 101 104" xmlns:v="https://vecta.io/nano"><style><![CDATA[.K{stroke:#444}.L{stroke-width:.7}.M{fill:none}.N{fill:#fff}.O{fill:#f3f5f9}.P{stroke-linejoin:round}.Q{stroke-miterlimit:10}.R{stroke-linecap:round}]]></style><defs><clipPath id="A"><circle cx="50.486" cy="53.203" r="50" class="M"/></clipPath><path id="B" d="M7.162 74.173V60.64A12.88 12.88 0 0 1 20 47.802h0A12.88 12.88 0 0 1 32.838 60.64v13.533c0 1.776-25.676 1.776-25.676 0z"/><path id="C" d="M34.966 108.715l.002-22.534c.003-5.365-4.008-9.837-9.179-10.569.032.246.055.495.054.75-.002 3.152-5.71 5.703-5.71 5.703s-5.705-2.558-5.703-5.71c0-.255.023-.504.055-.75-5.172.726-9.188 5.194-9.191 10.559l-.002 22.534"/><path id="D" d="M89.889 60.84c0-2.278-.768-4.205-2.038-5.665-1.662-2.009-4.17-3.293-6.981-3.293h0c-2.747 0-5.207 1.224-6.868 3.155-1.343 1.475-2.159 3.452-2.159 5.802v5.592s.653-3.249 2.608-5.942a7.25 7.25 0 0 0 4.342 1.438h3.52a7.25 7.25 0 0 0 4.733-1.752c2.14 2.748 2.844 6.257 2.844 6.257V60.84z"/><path id="E" d="M95.705 108.711l.002-22.534c.003-5.365-4.008-9.837-9.179-10.569.032.246.055.495.054.75a5.71 5.71 0 0 1-5.71 5.703 5.71 5.71 0 0 1-5.703-5.71c0-.255.023-.504.055-.75-5.172.726-9.188 5.194-9.191 10.559l-.002 22.534"/><path id="F" d="M70.852 115.942l.003-25.642c.004-7.039-5.259-12.908-12.044-13.868.042.323.072.649.071.984A7.49 7.49 0 0 1 51.39 84.9a7.49 7.49 0 0 1-7.483-7.492c0-.334.03-.661.072-.984-6.787.952-12.056 6.815-12.06 13.855l-.003 25.642"/><path id="G" d="M46.724 47.235c-.597 1.209-.928 2.397-.929 3.793-.003 5.583 5.274 10.111 11.787 10.115 3.677.002 6.961-1.439 9.125-3.698-2.946-.416-4.248-4.06-4.248-4.06-1.794-4.23-5.994-7.217-10.858-7.22h0c-6.486-.004-11.796 5.3-11.8 11.786l-.005 9.36c-.004 6.486 5.3 11.796 11.786 11.8h0c6.486.004 11.796-5.3 11.8-11.786l.004-7.403"/><path id="H" d="M41.12 31.215c.699 1.613.94 5.35-.362 9.273l10.235-9.54c.33-.308.765-.479 1.217-.479h19.295c3.807 0 6.894-3.085 6.894-6.89V7.688c0-3.805-3.086-6.89-6.894-6.89h-39.23c-3.807 0-6.894 3.085-6.894 6.89v15.891c0 3.805 3.086 6.89 6.894 6.89h7.675c.508 0 .968.28 1.17.746z"/></defs><g clip-path="url(#A)"><use xlink:href="#B" class="N"/><path d="M10.282 74.173V60.64c0-6.482 4.869-11.878 11.13-12.72-.559-.075-1.129-.118-1.708-.118h0A12.88 12.88 0 0 0 6.867 60.64v13.533c0 .967 7.611 1.408 14.545 1.322-5.802-.072-11.13-.512-11.13-1.322z" class="O"/><g class="K L P"><use xlink:href="#B" class="M"/><g class="N"><rect x="10.858" y="51.097" width="18.127" height="25.352" rx="9.063"/></g></g><use xlink:href="#C" class="N"/><path d="M11.857 87.025c.002-3.052 1.599-5.92 3.672-7.867-.506-.853-1.098-1.738-1.098-2.802 0-.255.023-.504.055-.75-5.172.726-9.188 5.194-9.191 10.559l-.002 22.534 6.562.004.001-21.678z" class="O"/><g class="K L M Q"><path d="M28.987 64.249a1.56 1.56 0 0 1 1.557 1.559 1.56 1.56 0 0 1-1.559 1.557m-18.127-3.126a1.56 1.56 0 0 0-1.559 1.557 1.56 1.56 0 0 0 1.557 1.559"/><use xlink:href="#C"/></g><path d="M13.942 60.448c0-4.794 3.893-8.688 8.726-8.772-.916-.315-1.9-.489-2.925-.489-4.907 0-8.885 3.929-8.885 8.776 0 2.081 3.275 3.266 7.013 3.561-2.286-.578-3.929-1.602-3.929-3.076z" class="O"/><g class="K L P"><path d="M28.885 59.873c0 1.077-.877 1.915-2.242 2.513l-1.344-3.565-.247 4.104c-5.224 1.359-13.937.342-13.937-3.052 0-4.847 3.978-8.776 8.885-8.776s8.885 3.929 8.885 8.776z" class="M"/><g class="N"><rect x="71.802" y="51.882" width="18.127" height="25.352" rx="9.063"/></g></g><use xlink:href="#D" class="N"/><path d="M76.803 55.098c1.377-1.6 3.303-2.713 5.486-3.048-.45-.069-.909-.108-1.378-.108h0c-2.747 0-5.207 1.224-6.868 3.155-1.343 1.475-2.159 3.452-2.159 5.802v5.592s.653-3.249 2.608-5.942l.163.112c.054-2.244.852-4.14 2.149-5.564z" class="O"/><g class="K L M Q"><path d="M89.93 65.034a1.56 1.56 0 0 1 1.557 1.559 1.56 1.56 0 0 1-1.559 1.557m-18.309-3.116a1.56 1.56 0 0 0-1.557 1.559 1.56 1.56 0 0 0 1.559 1.557"/></g><use xlink:href="#E" class="N"/><path d="M72.596 87.02c.002-3.052 1.303-5.812 3.376-7.76a5.67 5.67 0 0 1-.802-2.909c0-.255.023-.504.055-.75-5.172.726-9.188 5.194-9.191 10.559l-.002 22.534 6.562.004.001-21.678z" class="O"/><g class="K L M"><use xlink:href="#E" class="Q"/><use xlink:href="#D" class="P"/></g><use xlink:href="#F" fill="#00a3e0" class="K L Q"/><path d="M40.529 91.407c.002-4.004 1.71-7.626 4.429-10.182a7.44 7.44 0 0 1-1.052-3.817c0-.334.03-.661.072-.984-6.787.952-12.056 6.815-12.06 13.855l-.003 25.642 8.611.005.002-24.519z" fill="#0082b3"/><use xlink:href="#F" class="K L M Q"/><g class="N"><use xlink:href="#G"/><g class="K L P R"><path d="M63.529 63.422c1.129.001 2.044.916 2.043 2.046s-.916 2.044-2.046 2.043m-23.785-4.103c-1.129-.001-2.045.914-2.046 2.043s.914 2.045 2.043 2.046"/></g></g><path d="M46.569 47.343c-3.989 1.855-6.766 6.067-6.77 12.293l3.642-1.737c-.627-4.896.67-8.011 3.128-10.556z" class="O"/><g class="K L M"><path d="M46.384 54.172c-1.229 2.519-3.613 4.521-6.585 5.518" class="Q"/><use xlink:href="#G" class="P R"/></g></g><g class="K L M P R"><path d="M4.321 33.889c3.943-9.485 10.722-17.493 19.28-22.967M3.114 37.099l.658-1.835M82.776 14.89c10.834 9.17 17.713 22.869 17.713 38.174 0 27.608-22.381 49.989-49.989 49.989S.511 80.672.511 53.064A49.96 49.96 0 0 1 2.77 38.163"/><path d="M80.508 13.08l.891.685"/></g><use xlink:href="#H" class="N"/><path d="M37.497.951c-3.439 0-6.228 3.089-6.228 6.899v15.781c0 3.81 2.788 6.899 6.228 6.899h-5.789c-3.439 0-6.228-3.089-6.228-6.899V7.85c0-4.164 3.927-6.899 6.228-6.899h5.789z" class="O"/><g class="K L M P"><use xlink:href="#H"/><path d="M65.469 8.25H34.007m36.582 7.17H34.007m32.247 7.17H34.007" class="R"/></g></svg>